<svg width="27" height="27" viewBox="0 0 27 27" fill="none" xmlns="http://www.w3.org/2000/svg">
<g clip-path="url(#clip0_299_1374)">
<path d="M11.4992 13.9639H4.92773V15.6067H11.4992V13.9639Z" fill="url(#paint0_linear_299_1374)"/>
<path d="M2.46401 15.6067C2.91767 15.6067 3.28544 15.239 3.28544 14.7853C3.28544 14.3316 2.91767 13.9639 2.46401 13.9639C2.01034 13.9639 1.64258 14.3316 1.64258 14.7853C1.64258 15.239 2.01034 15.6067 2.46401 15.6067Z" fill="url(#paint1_linear_299_1374)"/>
<path d="M10.6789 12.3216C11.1325 12.3216 11.5003 11.9538 11.5003 11.5001C11.5003 11.0465 11.1325 10.6787 10.6789 10.6787C10.2252 10.6787 9.85742 11.0465 9.85742 11.5001C9.85742 11.9538 10.2252 12.3216 10.6789 12.3216Z" fill="url(#paint2_linear_299_1374)"/>
<path d="M8.21401 10.6787H1.64258V12.3216H8.21401V10.6787Z" fill="url(#paint3_linear_299_1374)"/>
<path d="M11.4992 7.39258H4.92773V9.03544H11.4992V7.39258Z" fill="url(#paint4_linear_299_1374)"/>
<path d="M2.46401 9.03544C2.91767 9.03544 3.28544 8.66767 3.28544 8.21401C3.28544 7.76034 2.91767 7.39258 2.46401 7.39258C2.01034 7.39258 1.64258 7.76034 1.64258 8.21401C1.64258 8.66767 2.01034 9.03544 2.46401 9.03544Z" fill="url(#paint5_linear_299_1374)"/>
<path d="M24.6425 23.4926L18.564 17.414C19.7961 15.7712 20.5354 13.7176 20.5354 11.4997C20.5354 6.07829 16.0997 1.64258 10.6782 1.64258C7.96752 1.64258 5.42109 2.71044 3.53181 4.76401L4.76395 5.91401C6.24252 4.18901 8.37824 3.28544 10.6782 3.28544C15.1961 3.28544 18.8925 6.98186 18.8925 11.4997C18.8925 16.0176 15.1961 19.714 10.6782 19.714C8.21395 19.714 5.91395 18.6462 4.35324 16.7569L3.12109 17.8247C4.92824 20.0426 7.72109 21.3569 10.6782 21.3569C13.3068 21.3569 15.689 20.289 17.4961 18.6462L23.4925 24.6426L24.6425 23.4926Z" fill="url(#paint6_linear_299_1374)"/>
</g>
<defs>
<linearGradient id="paint0_linear_299_1374" x1="8.21345" y1="13.9639" x2="8.21345" y2="15.6067" gradientUnits="userSpaceOnUse">
<stop stop-color="#5BCFEF"/>
<stop offset="1" stop-color="#42C7F0"/>
</linearGradient>
<linearGradient id="paint1_linear_299_1374" x1="2.46401" y1="13.9639" x2="2.46401" y2="15.6067" gradientUnits="userSpaceOnUse">
<stop stop-color="#5BCFEF"/>
<stop offset="1" stop-color="#42C7F0"/>
</linearGradient>
<linearGradient id="paint2_linear_299_1374" x1="10.6789" y1="10.6787" x2="10.6789" y2="12.3216" gradientUnits="userSpaceOnUse">
<stop stop-color="#5BCFEF"/>
<stop offset="1" stop-color="#42C7F0"/>
</linearGradient>
<linearGradient id="paint3_linear_299_1374" x1="4.92829" y1="10.6787" x2="4.92829" y2="12.3216" gradientUnits="userSpaceOnUse">
<stop stop-color="#5BCFEF"/>
<stop offset="1" stop-color="#42C7F0"/>
</linearGradient>
<linearGradient id="paint4_linear_299_1374" x1="8.21345" y1="7.39258" x2="8.21345" y2="9.03544" gradientUnits="userSpaceOnUse">
<stop stop-color="#5BCFEF"/>
<stop offset="1" stop-color="#42C7F0"/>
</linearGradient>
<linearGradient id="paint5_linear_299_1374" x1="2.46401" y1="7.39258" x2="2.46401" y2="9.03544" gradientUnits="userSpaceOnUse">
<stop stop-color="#5BCFEF"/>
<stop offset="1" stop-color="#42C7F0"/>
</linearGradient>
<linearGradient id="paint6_linear_299_1374" x1="13.8818" y1="1.64258" x2="13.8818" y2="24.6426" gradientUnits="userSpaceOnUse">
<stop stop-color="#5BCFEF"/>
<stop offset="1" stop-color="#42C7F0"/>
</linearGradient>
<clipPath id="clip0_299_1374">
<rect width="26.2857" height="26.2857" fill="white"/>
</clipPath>
</defs>
</svg>
