<svg width="54" height="54" viewBox="0 0 54 54" fill="none" xmlns="http://www.w3.org/2000/svg">
<g clip-path="url(#clip0_318_882)">
<path d="M50.6251 52.9201C49.3595 52.9201 48.3301 51.8907 48.3301 50.6251C48.3301 50.2133 48.4398 49.8235 48.6321 49.4894L27.6076 28.4665V43.8751C27.6076 47.2619 30.3633 50.0176 33.7501 50.0176H37.1251V51.2343H33.7501C30.7328 51.2343 28.1341 49.4084 27.0001 46.8029C25.8661 49.4084 23.2673 51.2343 20.2501 51.2343C17.7695 51.2343 15.4373 49.9416 14.0856 47.8407C9.62389 47.6551 6.14258 44.054 6.14258 39.6563C6.14258 38.1393 6.56783 36.6678 7.37952 35.3633C4.5192 33.5594 2.76758 30.4105 2.76758 27.0001C2.76758 23.5896 4.5192 20.4425 7.37952 18.6351C6.56952 17.3324 6.14258 15.8626 6.14258 14.3438C6.14258 9.9057 9.68802 6.27927 14.0941 6.14595C15.4491 4.05345 17.7762 2.76758 20.2501 2.76758C23.2673 2.76758 25.8661 4.59345 27.0001 7.19727C28.1341 4.59345 30.7328 2.76758 33.7501 2.76758H37.1251V3.98258H33.7501C30.3633 3.98258 27.6076 6.73827 27.6076 10.1251V25.5336L48.6305 4.51077C48.4398 4.17495 48.3301 3.78852 48.3301 3.37508C48.3301 2.10945 49.3595 1.08008 50.6251 1.08008C51.8907 1.08008 52.9201 2.10945 52.9201 3.37508C52.9201 4.6407 51.8907 5.67008 50.6251 5.67008C50.2133 5.67008 49.8235 5.56039 49.4894 5.3697L28.4665 26.3926H48.4111C48.6777 25.4206 49.5704 24.7051 50.6251 24.7051C51.8907 24.7051 52.9201 25.7345 52.9201 27.0001C52.9201 28.2657 51.8907 29.2951 50.6251 29.2951C49.5704 29.2951 48.6794 28.5779 48.4111 27.6076H28.4665L49.4894 48.6305C49.8235 48.4398 50.2133 48.3284 50.6251 48.3284C51.8907 48.3284 52.9201 49.3578 52.9201 50.6234C52.9201 51.889 51.8907 52.9201 50.6251 52.9201ZM50.6251 49.5451C50.0294 49.5451 49.5451 50.0294 49.5451 50.6251C49.5451 51.2208 50.0294 51.7051 50.6251 51.7051C51.2208 51.7051 51.7051 51.2208 51.7051 50.6251C51.7051 50.0294 51.2208 49.5451 50.6251 49.5451ZM14.3793 46.6426C14.5986 46.6426 14.8467 46.7472 14.9564 46.9362C16.0752 48.865 18.0546 50.0176 20.2501 50.0176C23.6369 50.0176 26.3926 47.2619 26.3926 43.8751V27.0018V26.9967V10.1251C26.3926 6.73827 23.6369 3.98258 20.2501 3.98258C18.0546 3.98258 16.0752 5.13514 14.9564 7.06395C14.926 7.11627 14.8889 7.16352 14.8467 7.20233C14.3624 8.09333 14.1076 9.10245 14.1076 10.1251C14.1076 11.2051 14.3911 12.2665 14.9294 13.1963L13.8781 13.8038C13.2335 12.6918 12.8926 11.4177 12.8926 10.1251C12.8926 9.20202 13.0664 8.28908 13.3988 7.43689C9.95802 7.9212 7.35758 10.8338 7.35758 14.3438C7.35758 15.8221 7.83514 17.2497 8.73627 18.4715C8.84089 18.6132 8.87802 18.7921 8.84089 18.9642C8.80208 19.1363 8.69239 19.2815 8.53714 19.3658C5.72745 20.8863 3.98258 23.8107 3.98258 27.0001C3.98258 30.0123 5.53845 32.7882 8.07814 34.366C9.64077 32.5148 11.9155 31.4551 14.3438 31.4551V32.6718C12.2243 32.6718 10.2449 33.6185 8.91008 35.2671L8.8527 35.2216C8.84258 35.3313 8.80377 35.4376 8.73627 35.5287C7.83514 36.7505 7.35758 38.1781 7.35758 39.6563C7.35758 43.5089 10.4913 46.6426 14.3438 46.6426C14.3556 46.6426 14.3691 46.6426 14.3793 46.6426ZM50.6251 25.9201C50.0294 25.9201 49.5451 26.4044 49.5451 27.0001C49.5451 27.5958 50.0294 28.0801 50.6251 28.0801C51.2208 28.0801 51.7051 27.5958 51.7051 27.0001C51.7051 26.4044 51.2208 25.9201 50.6251 25.9201ZM50.6251 2.29508C50.0294 2.29508 49.5451 2.77939 49.5451 3.37508C49.5451 3.97077 50.0294 4.45508 50.6251 4.45508C51.2208 4.45508 51.7051 3.97077 51.7051 3.37508C51.7051 2.77939 51.2208 2.29508 50.6251 2.29508ZM20.2501 47.8576V46.6426C21.7756 46.6426 23.0176 45.4023 23.0176 43.8751H24.2326C24.2326 46.0722 22.4455 47.8576 20.2501 47.8576ZM15.1876 44.4826C12.5264 44.4826 10.3613 42.3175 10.3613 39.6563H11.5763C11.5763 41.6476 13.1963 43.2676 15.1876 43.2676V44.4826ZM20.2501 41.1076C18.0546 41.1076 16.2676 39.3205 16.2676 37.1251C16.2676 34.9296 18.0546 33.1426 20.2501 33.1426V34.3593C18.7246 34.3593 17.4826 35.5996 17.4826 37.1268C17.4826 38.654 18.7246 39.8943 20.2501 39.8943V41.1076ZM10.6853 28.1256C9.9327 27.373 9.51758 26.374 9.51758 25.3126C9.51758 22.967 11.1545 21.3301 13.5001 21.3301C14.5818 21.3301 15.5555 21.7317 16.3165 22.4928L15.4559 23.3517C14.9294 22.8235 14.2527 22.5451 13.5001 22.5451C11.8193 22.5451 10.7326 23.6318 10.7326 25.3126C10.7326 26.05 11.0211 26.7436 11.5426 27.2667L10.6853 28.1256ZM20.2501 21.7013V20.4863C21.7756 20.4863 23.0176 19.2443 23.0176 17.7188C23.0176 16.1933 21.7756 14.9513 20.2501 14.9513V13.7363C22.4455 13.7363 24.2326 15.5234 24.2326 17.7188C24.2326 19.9143 22.4455 21.7013 20.2501 21.7013ZM24.2326 10.1251H23.0176C23.0176 8.59958 21.7756 7.35758 20.2501 7.35758C18.7246 7.35758 17.4826 8.59958 17.4826 10.1251H16.2676C16.2676 7.92964 18.0546 6.14258 20.2501 6.14258C22.4455 6.14258 24.2326 7.92964 24.2326 10.1251Z" fill="url(#paint0_linear_318_882)"/>
</g>
<defs>
<linearGradient id="paint0_linear_318_882" x1="27.8438" y1="1.08008" x2="27.8438" y2="52.9201" gradientUnits="userSpaceOnUse">
<stop stop-color="#5BCFEF"/>
<stop offset="1" stop-color="#42C7F0"/>
</linearGradient>
<clipPath id="clip0_318_882">
<rect width="54" height="54" fill="white"/>
</clipPath>
</defs>
</svg>
