<svg width="54" height="54" viewBox="0 0 54 54" fill="none" xmlns="http://www.w3.org/2000/svg">
<g clip-path="url(#clip0_318_834)">
<path d="M27.0001 52.9201C25.9083 52.9201 24.992 52.154 24.7608 51.1296C12.3863 49.994 2.76758 39.4926 2.76758 27.0001C2.76758 14.5058 12.3863 4.00452 24.7608 2.87052C24.992 1.8462 25.9083 1.08008 27.0001 1.08008C28.1948 1.08008 29.1803 1.99808 29.285 3.16752C32.9266 4.45845 35.9337 8.71939 37.7022 14.5801H46.3861C45.8427 13.7363 45.2403 12.9263 44.5838 12.1484C44.2632 12.3222 43.8953 12.4201 43.5038 12.4201C42.2382 12.4201 41.2088 11.3907 41.2088 10.1251C41.2088 8.85945 42.2382 7.83008 43.5038 7.83008C44.7695 7.83008 45.7988 8.85945 45.7988 10.1251C45.7988 10.5588 45.6773 10.9655 45.4681 11.3114C48.725 15.137 50.674 19.7675 51.1296 24.7608C52.1523 24.992 52.9201 25.9083 52.9201 27.0001C52.9201 28.0919 52.1523 29.0082 51.1296 29.2394C50.0682 40.7853 40.7836 50.0699 29.2377 51.1313C29.0082 52.1523 28.0919 52.9201 27.0001 52.9201ZM27.0001 49.5451C26.4044 49.5451 25.9201 50.0294 25.9201 50.6251C25.9201 51.2208 26.4044 51.7051 27.0001 51.7051C27.5958 51.7051 28.0801 51.2208 28.0801 50.6251C28.0801 50.0294 27.5958 49.5451 27.0001 49.5451ZM17.5855 39.4201C19.2224 44.6193 21.8549 48.4161 24.938 49.6193C25.2248 49.0321 25.753 48.5883 26.3926 48.4111V39.4201H17.5855ZM27.6076 48.4111C28.2471 48.5866 28.7753 49.0321 29.0622 49.6176C31.7943 48.5461 34.2749 45.3618 35.9708 40.7262C35.5135 40.4225 35.1693 39.9601 35.0225 39.4201H27.6076V48.4111ZM37.1251 41.1042C35.7278 44.9365 33.7855 47.8626 31.5698 49.562C37.741 48.3081 43.0431 44.5551 46.3591 39.4201H39.4471C39.1703 40.4241 38.2101 41.1616 37.1251 41.1042ZM7.64445 39.4201C10.9418 44.5366 16.2136 48.2946 22.4016 49.5569C19.8113 47.5842 17.6783 43.9983 16.298 39.4201H7.64445ZM37.2331 37.7326C36.6374 37.7326 36.1531 38.2169 36.1531 38.8126C36.1531 39.4083 36.6374 39.8926 37.2331 39.8926C37.8288 39.8926 38.3131 39.4083 38.3131 38.8126C38.3131 38.2169 37.8288 37.7326 37.2331 37.7326ZM39.4471 38.2051H47.0898C48.617 35.4865 49.6075 32.4288 49.9146 29.1837C49.1856 28.9441 48.6153 28.3518 48.4111 27.6076H39.415C39.3779 30.8206 39.0252 33.9138 38.3688 36.818C38.8919 37.1166 39.2851 37.6145 39.4471 38.2051ZM27.6076 38.2051H35.0208C35.284 37.2483 36.1548 36.5378 37.1926 36.5193C37.8237 33.7096 38.1612 30.7176 38.2017 27.6076H27.6076V38.2051ZM17.2278 38.2051H26.3926V27.6076H17.3999C17.1906 28.3686 16.5983 28.9728 15.8457 29.1989C15.9976 32.4321 16.4819 35.4831 17.2278 38.2051ZM6.91377 38.2051H15.9554C15.2399 35.4831 14.7792 32.4507 14.6324 29.2276C13.8291 29.0285 13.193 28.4041 12.9753 27.6093H3.99102C4.09058 31.4298 5.1402 35.0444 6.91377 38.2051ZM50.6251 25.9201C50.0294 25.9201 49.5451 26.4044 49.5451 27.0001C49.5451 27.5958 50.0294 28.0801 50.6251 28.0801C51.2208 28.0801 51.7051 27.5958 51.7051 27.0001C51.7051 26.4044 51.2208 25.9201 50.6251 25.9201ZM15.1876 25.9201C14.5919 25.9201 14.1076 26.4044 14.1076 27.0001C14.1076 27.5958 14.5919 28.0801 15.1876 28.0801C15.7833 28.0801 16.2676 27.5958 16.2676 27.0001C16.2676 26.4044 15.7833 25.9201 15.1876 25.9201ZM39.415 26.3926H48.4111C48.6153 25.6484 49.1856 25.0544 49.9146 24.8165C49.6143 21.6068 48.6642 18.5558 47.1185 15.7934H38.0465C38.8835 18.9794 39.3695 22.5771 39.415 26.3926ZM27.6076 26.3926H38.2017C38.1528 22.5805 37.6398 18.9659 36.7707 15.7951H27.6076V26.3926ZM17.4016 26.3926H26.3943V15.7951H17.2278C16.4819 18.517 15.9976 21.568 15.8474 24.8013C16.6 25.0274 17.1923 25.6315 17.4016 26.3926ZM3.99102 26.3926H12.9753C13.193 25.5978 13.8291 24.9734 14.6324 24.7726C14.7792 21.5495 15.2399 18.5187 15.9554 15.7951H6.91208C5.13852 18.9575 4.09058 22.5704 3.99102 26.3926ZM27.6076 14.5801H36.4146C34.7811 9.3927 32.1588 5.58739 29.0622 4.38083C28.7753 4.96639 28.2471 5.41189 27.6076 5.58739V14.5801ZM17.5838 14.5801H26.3926V5.58908C25.753 5.41358 25.2248 4.96808 24.938 4.38252C21.8566 5.58402 19.2224 9.38089 17.5838 14.5801ZM7.64445 14.5801H16.2963C17.6766 10.0019 19.8113 6.41427 22.4 4.44327C16.2136 5.70383 10.9418 9.46189 7.64445 14.5801ZM43.5038 9.04508C42.9081 9.04508 42.4238 9.52939 42.4238 10.1251C42.4238 10.7208 42.9081 11.2051 43.5038 11.2051C44.0995 11.2051 44.5838 10.7208 44.5838 10.1251C44.5838 9.52939 44.0995 9.04508 43.5038 9.04508ZM27.0001 2.29508C26.4044 2.29508 25.9201 2.77939 25.9201 3.37508C25.9201 3.97077 26.4044 4.45508 27.0001 4.45508C27.5958 4.45508 28.0801 3.97077 28.0801 3.37508C28.0801 2.77939 27.5958 2.29508 27.0001 2.29508Z" fill="url(#paint0_linear_318_834)"/>
</g>
<defs>
<linearGradient id="paint0_linear_318_834" x1="27.8438" y1="1.08008" x2="27.8438" y2="52.9201" gradientUnits="userSpaceOnUse">
<stop stop-color="#5BCFEF"/>
<stop offset="1" stop-color="#42C7F0"/>
</linearGradient>
<clipPath id="clip0_318_834">
<rect width="54" height="54" fill="white"/>
</clipPath>
</defs>
</svg>
