<svg width="54" height="54" viewBox="0 0 54 54" fill="none" xmlns="http://www.w3.org/2000/svg">
<g clip-path="url(#clip0_318_879)">
<path d="M52.922 52.4356H51.707C51.707 41.3201 43.5648 31.5208 32.343 29.1329C32.0848 29.0789 31.8907 28.8613 31.8654 28.598C31.8384 28.3348 31.9869 28.085 32.2316 27.9804C37.1422 25.8777 40.3164 21.0701 40.3164 15.7325C40.3164 8.39019 34.3443 2.41813 27.002 2.41813C19.6597 2.41813 13.6877 8.39187 13.6877 15.7325C13.6877 21.0734 16.8618 25.8811 21.7742 27.9804C22.0172 28.085 22.1657 28.3348 22.1403 28.598C22.115 28.8613 21.921 29.0789 21.6628 29.1329C10.4409 31.5224 2.29703 41.3218 2.29703 52.4356H1.08203C1.08203 41.2964 8.85128 31.4161 19.7829 28.3466C15.2942 25.7782 12.4727 20.9907 12.4727 15.7325C12.4727 7.72025 18.9898 1.20312 27.002 1.20312C35.0143 1.20312 41.5314 7.72025 41.5314 15.7325C41.5314 20.9907 38.7099 25.7748 34.2195 28.3432C45.1511 31.4144 52.922 41.2948 52.922 52.4356ZM32.0645 49.6681C31.943 49.6681 31.8182 49.631 31.7135 49.5568L27.002 46.2239L22.2905 49.5568C22.0762 49.7103 21.786 49.7069 21.575 49.5466C21.3641 49.3863 21.2797 49.1113 21.3658 48.8615L23.2288 43.4919L18.6303 40.1692C18.4177 40.0139 18.3266 39.7406 18.4093 39.4908C18.4903 39.2394 18.7232 39.0689 18.9864 39.0689H24.675L26.4249 33.6858C26.5059 33.4344 26.7388 33.2656 27.002 33.2656C27.2653 33.2656 27.4982 33.4361 27.5792 33.6858L29.3291 39.0689H35.0177C35.2809 39.0689 35.5155 39.2394 35.5965 39.4908C35.6775 39.7406 35.588 40.0156 35.3737 40.1692L30.7753 43.4919L32.6383 48.8615C32.726 49.1113 32.6417 49.388 32.4307 49.5466C32.321 49.6276 32.1928 49.6681 32.0645 49.6681ZM27.002 44.8739C27.1252 44.8739 27.2484 44.9111 27.353 44.9853L30.8715 47.4727L29.481 43.4649C29.3915 43.2118 29.481 42.9316 29.6987 42.773L33.1412 40.2856H28.887C28.6237 40.2856 28.3908 40.1152 28.3098 39.8654L27.002 35.8391L25.6942 39.8654C25.6132 40.1152 25.3787 40.2856 25.1171 40.2856H20.8646L24.3071 42.773C24.5248 42.9316 24.6125 43.2118 24.5248 43.4649L23.1343 47.4727L26.651 44.9853C26.7557 44.9111 26.8788 44.8739 27.002 44.8739Z" fill="url(#paint0_linear_318_879)"/>
</g>
<defs>
<linearGradient id="paint0_linear_318_879" x1="27.002" y1="1.20312" x2="27.002" y2="52.4356" gradientUnits="userSpaceOnUse">
<stop stop-color="#5BCFEF"/>
<stop offset="1" stop-color="#42C7F0"/>
</linearGradient>
<clipPath id="clip0_318_879">
<rect width="54" height="54" fill="white"/>
</clipPath>
</defs>
</svg>
